<svg width="40" height="40" viewBox="0 0 40 40" fill="none" xmlns="http://www.w3.org/2000/svg">
<path d="M27.2812 26.416C26.5612 27.3548 25.5632 28.0658 24.2871 28.5488C23.0111 29.0319 21.5618 29.2734 19.9395 29.2734C18.2715 29.2734 16.7949 28.8952 15.5098 28.1387C14.2246 27.3822 13.2311 26.3021 12.5293 24.8984C11.8366 23.4857 11.4766 21.8405 11.4492 19.9629V18.4043C11.4492 15.3965 12.1693 13.0495 13.6094 11.3633C15.0495 9.66797 17.0592 8.82031 19.6387 8.82031C21.8535 8.82031 23.6126 9.36719 24.916 10.4609C26.2194 11.5547 27.0033 13.1315 27.2676 15.1914H23.877C23.4941 12.7943 22.1042 11.5957 19.707 11.5957C18.1576 11.5957 16.9772 12.1562 16.166 13.2773C15.3639 14.3893 14.9492 16.0254 14.9219 18.1855V19.7168C14.9219 21.8678 15.373 23.5404 16.2754 24.7344C17.1868 25.9193 18.4492 26.5117 20.0625 26.5117C21.8307 26.5117 23.0885 26.1107 23.8359 25.3086V21.4121H19.7344V18.7871H27.2812V26.416Z" fill="#48B774"/>
<circle cx="20" cy="20" r="17.5" stroke="#F9A779" stroke-width="5"/>
</svg>
